<svg xmlns="http://www.w3.org/2000/svg" width="1120" height="430" viewBox="0 0 1120 430">
<rect x="0" y="0" width="1120" height="430" fill="#ffffff"/>
<text x="560.0" y="26" text-anchor="middle" font-family="Arial, sans-serif" font-size="18" font-weight="700">ACF hasta 288 retardos - v_t = log_rv_past_12</text>
<line x1="82" y1="372.00" x2="1090.00" y2="372.00" stroke="#e8e8e8" stroke-width="1"/>
<text x="74" y="376.00" text-anchor="end" font-family="Arial, sans-serif" font-size="11">-0.02</text>
<line x1="82" y1="293.50" x2="1090.00" y2="293.50" stroke="#e8e8e8" stroke-width="1"/>
<text x="74" y="297.50" text-anchor="end" font-family="Arial, sans-serif" font-size="11">0.255</text>
<line x1="82" y1="215.00" x2="1090.00" y2="215.00" stroke="#e8e8e8" stroke-width="1"/>
<text x="74" y="219.00" text-anchor="end" font-family="Arial, sans-serif" font-size="11">0.53</text>
<line x1="82" y1="136.50" x2="1090.00" y2="136.50" stroke="#e8e8e8" stroke-width="1"/>
<text x="74" y="140.50" text-anchor="end" font-family="Arial, sans-serif" font-size="11">0.805</text>
<line x1="82" y1="58.00" x2="1090.00" y2="58.00" stroke="#e8e8e8" stroke-width="1"/>
<text x="74" y="62.00" text-anchor="end" font-family="Arial, sans-serif" font-size="11">1.08</text>
<rect x="82" y="58" width="1008.00" height="314.00" fill="none" stroke="#222222" stroke-width="1"/>
<line x1="82" y1="366.29" x2="1090.00" y2="366.29" stroke="#222222" stroke-width="1"/>
<line x1="82" y1="365.16" x2="1090.00" y2="365.16" stroke="#a33" stroke-width="1" stroke-dasharray="5,4"/>
<line x1="82" y1="367.42" x2="1090.00" y2="367.42" stroke="#a33" stroke-width="1" stroke-dasharray="5,4"/>
<line x1="124.00" y1="58" x2="124.00" y2="372.00" stroke="#777777" stroke-width="1" stroke-dasharray="3,4"/>
<text x="124.00" y="50" text-anchor="middle" font-family="Arial, sans-serif" font-size="10" fill="#555555">12</text>
<line x1="1090.00" y1="58" x2="1090.00" y2="372.00" stroke="#777777" stroke-width="1" stroke-dasharray="3,4"/>
<text x="1090.00" y="50" text-anchor="middle" font-family="Arial, sans-serif" font-size="10" fill="#555555">288</text>
<rect x="80.50" y="80.84" width="3.00" height="285.45" fill="#8a4f9f" opacity="0.82"/>
<rect x="84.00" y="86.15" width="3.00" height="280.14" fill="#8a4f9f" opacity="0.82"/>
<rect x="87.50" y="92.11" width="3.00" height="274.18" fill="#8a4f9f" opacity="0.82"/>
<rect x="91.00" y="98.53" width="3.00" height="267.76" fill="#8a4f9f" opacity="0.82"/>
<rect x="94.50" y="105.23" width="3.00" height="261.06" fill="#8a4f9f" opacity="0.82"/>
<rect x="98.00" y="112.10" width="3.00" height="254.19" fill="#8a4f9f" opacity="0.82"/>
<rect x="101.50" y="119.14" width="3.00" height="247.15" fill="#8a4f9f" opacity="0.82"/>
<rect x="105.00" y="126.29" width="3.00" height="240.00" fill="#8a4f9f" opacity="0.82"/>
<rect x="108.50" y="133.53" width="3.00" height="232.76" fill="#8a4f9f" opacity="0.82"/>
<rect x="112.00" y="140.81" width="3.00" height="225.49" fill="#8a4f9f" opacity="0.82"/>
<rect x="115.50" y="148.10" width="3.00" height="218.19" fill="#8a4f9f" opacity="0.82"/>
<rect x="119.00" y="155.35" width="3.00" height="210.94" fill="#8a4f9f" opacity="0.82"/>
<rect x="122.50" y="162.52" width="3.00" height="203.77" fill="#8a4f9f" opacity="0.82"/>
<rect x="126.00" y="165.69" width="3.00" height="200.60" fill="#8a4f9f" opacity="0.82"/>
<rect x="129.50" y="168.52" width="3.00" height="197.77" fill="#8a4f9f" opacity="0.82"/>
<rect x="133.00" y="171.10" width="3.00" height="195.19" fill="#8a4f9f" opacity="0.82"/>
<rect x="136.50" y="173.53" width="3.00" height="192.76" fill="#8a4f9f" opacity="0.82"/>
<rect x="140.00" y="175.92" width="3.00" height="190.38" fill="#8a4f9f" opacity="0.82"/>
<rect x="143.50" y="178.21" width="3.00" height="188.08" fill="#8a4f9f" opacity="0.82"/>
<rect x="147.00" y="180.40" width="3.00" height="185.89" fill="#8a4f9f" opacity="0.82"/>
<rect x="150.50" y="182.49" width="3.00" height="183.80" fill="#8a4f9f" opacity="0.82"/>
<rect x="154.00" y="184.50" width="3.00" height="181.80" fill="#8a4f9f" opacity="0.82"/>
<rect x="157.50" y="186.40" width="3.00" height="179.89" fill="#8a4f9f" opacity="0.82"/>
<rect x="161.00" y="188.24" width="3.00" height="178.05" fill="#8a4f9f" opacity="0.82"/>
<rect x="164.50" y="190.00" width="3.00" height="176.29" fill="#8a4f9f" opacity="0.82"/>
<rect x="168.00" y="191.66" width="3.00" height="174.63" fill="#8a4f9f" opacity="0.82"/>
<rect x="171.50" y="193.28" width="3.00" height="173.01" fill="#8a4f9f" opacity="0.82"/>
<rect x="175.00" y="194.85" width="3.00" height="171.44" fill="#8a4f9f" opacity="0.82"/>
<rect x="178.50" y="196.41" width="3.00" height="169.88" fill="#8a4f9f" opacity="0.82"/>
<rect x="182.00" y="197.89" width="3.00" height="168.40" fill="#8a4f9f" opacity="0.82"/>
<rect x="185.50" y="199.33" width="3.00" height="166.96" fill="#8a4f9f" opacity="0.82"/>
<rect x="189.00" y="200.72" width="3.00" height="165.57" fill="#8a4f9f" opacity="0.82"/>
<rect x="192.50" y="202.07" width="3.00" height="164.22" fill="#8a4f9f" opacity="0.82"/>
<rect x="196.00" y="203.42" width="3.00" height="162.87" fill="#8a4f9f" opacity="0.82"/>
<rect x="199.50" y="204.73" width="3.00" height="161.56" fill="#8a4f9f" opacity="0.82"/>
<rect x="203.00" y="206.01" width="3.00" height="160.28" fill="#8a4f9f" opacity="0.82"/>
<rect x="206.50" y="207.28" width="3.00" height="159.01" fill="#8a4f9f" opacity="0.82"/>
<rect x="210.00" y="208.52" width="3.00" height="157.77" fill="#8a4f9f" opacity="0.82"/>
<rect x="213.50" y="209.72" width="3.00" height="156.57" fill="#8a4f9f" opacity="0.82"/>
<rect x="217.00" y="210.90" width="3.00" height="155.39" fill="#8a4f9f" opacity="0.82"/>
<rect x="220.50" y="212.00" width="3.00" height="154.29" fill="#8a4f9f" opacity="0.82"/>
<rect x="224.00" y="213.03" width="3.00" height="153.26" fill="#8a4f9f" opacity="0.82"/>
<rect x="227.50" y="214.03" width="3.00" height="152.26" fill="#8a4f9f" opacity="0.82"/>
<rect x="231.00" y="215.04" width="3.00" height="151.25" fill="#8a4f9f" opacity="0.82"/>
<rect x="234.50" y="216.01" width="3.00" height="150.28" fill="#8a4f9f" opacity="0.82"/>
<rect x="238.00" y="216.95" width="3.00" height="149.34" fill="#8a4f9f" opacity="0.82"/>
<rect x="241.50" y="217.90" width="3.00" height="148.39" fill="#8a4f9f" opacity="0.82"/>
<rect x="245.00" y="218.79" width="3.00" height="147.50" fill="#8a4f9f" opacity="0.82"/>
<rect x="248.50" y="219.64" width="3.00" height="146.65" fill="#8a4f9f" opacity="0.82"/>
<rect x="252.00" y="220.46" width="3.00" height="145.83" fill="#8a4f9f" opacity="0.82"/>
<rect x="255.50" y="221.23" width="3.00" height="145.06" fill="#8a4f9f" opacity="0.82"/>
<rect x="259.00" y="221.97" width="3.00" height="144.32" fill="#8a4f9f" opacity="0.82"/>
<rect x="262.50" y="222.68" width="3.00" height="143.61" fill="#8a4f9f" opacity="0.82"/>
<rect x="266.00" y="223.42" width="3.00" height="142.87" fill="#8a4f9f" opacity="0.82"/>
<rect x="269.50" y="224.13" width="3.00" height="142.16" fill="#8a4f9f" opacity="0.82"/>
<rect x="273.00" y="224.78" width="3.00" height="141.52" fill="#8a4f9f" opacity="0.82"/>
<rect x="276.50" y="225.40" width="3.00" height="140.89" fill="#8a4f9f" opacity="0.82"/>
<rect x="280.00" y="226.00" width="3.00" height="140.29" fill="#8a4f9f" opacity="0.82"/>
<rect x="283.50" y="226.54" width="3.00" height="139.75" fill="#8a4f9f" opacity="0.82"/>
<rect x="287.00" y="227.07" width="3.00" height="139.22" fill="#8a4f9f" opacity="0.82"/>
<rect x="290.50" y="227.60" width="3.00" height="138.69" fill="#8a4f9f" opacity="0.82"/>
<rect x="294.00" y="228.11" width="3.00" height="138.18" fill="#8a4f9f" opacity="0.82"/>
<rect x="297.50" y="228.66" width="3.00" height="137.64" fill="#8a4f9f" opacity="0.82"/>
<rect x="301.00" y="229.19" width="3.00" height="137.11" fill="#8a4f9f" opacity="0.82"/>
<rect x="304.50" y="229.73" width="3.00" height="136.56" fill="#8a4f9f" opacity="0.82"/>
<rect x="308.00" y="230.25" width="3.00" height="136.04" fill="#8a4f9f" opacity="0.82"/>
<rect x="311.50" y="230.81" width="3.00" height="135.48" fill="#8a4f9f" opacity="0.82"/>
<rect x="315.00" y="231.39" width="3.00" height="134.90" fill="#8a4f9f" opacity="0.82"/>
<rect x="318.50" y="232.00" width="3.00" height="134.29" fill="#8a4f9f" opacity="0.82"/>
<rect x="322.00" y="232.61" width="3.00" height="133.68" fill="#8a4f9f" opacity="0.82"/>
<rect x="325.50" y="233.27" width="3.00" height="133.02" fill="#8a4f9f" opacity="0.82"/>
<rect x="329.00" y="233.97" width="3.00" height="132.32" fill="#8a4f9f" opacity="0.82"/>
<rect x="332.50" y="234.69" width="3.00" height="131.60" fill="#8a4f9f" opacity="0.82"/>
<rect x="336.00" y="235.42" width="3.00" height="130.87" fill="#8a4f9f" opacity="0.82"/>
<rect x="339.50" y="236.13" width="3.00" height="130.16" fill="#8a4f9f" opacity="0.82"/>
<rect x="343.00" y="236.87" width="3.00" height="129.42" fill="#8a4f9f" opacity="0.82"/>
<rect x="346.50" y="237.59" width="3.00" height="128.70" fill="#8a4f9f" opacity="0.82"/>
<rect x="350.00" y="238.31" width="3.00" height="127.98" fill="#8a4f9f" opacity="0.82"/>
<rect x="353.50" y="239.01" width="3.00" height="127.28" fill="#8a4f9f" opacity="0.82"/>
<rect x="357.00" y="239.73" width="3.00" height="126.57" fill="#8a4f9f" opacity="0.82"/>
<rect x="360.50" y="240.41" width="3.00" height="125.89" fill="#8a4f9f" opacity="0.82"/>
<rect x="364.00" y="241.10" width="3.00" height="125.19" fill="#8a4f9f" opacity="0.82"/>
<rect x="367.50" y="241.77" width="3.00" height="124.52" fill="#8a4f9f" opacity="0.82"/>
<rect x="371.00" y="242.42" width="3.00" height="123.87" fill="#8a4f9f" opacity="0.82"/>
<rect x="374.50" y="243.06" width="3.00" height="123.23" fill="#8a4f9f" opacity="0.82"/>
<rect x="378.00" y="243.76" width="3.00" height="122.53" fill="#8a4f9f" opacity="0.82"/>
<rect x="381.50" y="244.44" width="3.00" height="121.85" fill="#8a4f9f" opacity="0.82"/>
<rect x="385.00" y="245.12" width="3.00" height="121.17" fill="#8a4f9f" opacity="0.82"/>
<rect x="388.50" y="245.83" width="3.00" height="120.46" fill="#8a4f9f" opacity="0.82"/>
<rect x="392.00" y="246.60" width="3.00" height="119.69" fill="#8a4f9f" opacity="0.82"/>
<rect x="395.50" y="247.40" width="3.00" height="118.89" fill="#8a4f9f" opacity="0.82"/>
<rect x="399.00" y="248.18" width="3.00" height="118.11" fill="#8a4f9f" opacity="0.82"/>
<rect x="402.50" y="249.02" width="3.00" height="117.28" fill="#8a4f9f" opacity="0.82"/>
<rect x="406.00" y="249.89" width="3.00" height="116.40" fill="#8a4f9f" opacity="0.82"/>
<rect x="409.50" y="250.79" width="3.00" height="115.50" fill="#8a4f9f" opacity="0.82"/>
<rect x="413.00" y="251.71" width="3.00" height="114.58" fill="#8a4f9f" opacity="0.82"/>
<rect x="416.50" y="252.61" width="3.00" height="113.68" fill="#8a4f9f" opacity="0.82"/>
<rect x="420.00" y="253.44" width="3.00" height="112.85" fill="#8a4f9f" opacity="0.82"/>
<rect x="423.50" y="254.27" width="3.00" height="112.02" fill="#8a4f9f" opacity="0.82"/>
<rect x="427.00" y="255.09" width="3.00" height="111.20" fill="#8a4f9f" opacity="0.82"/>
<rect x="430.50" y="255.92" width="3.00" height="110.37" fill="#8a4f9f" opacity="0.82"/>
<rect x="434.00" y="256.66" width="3.00" height="109.63" fill="#8a4f9f" opacity="0.82"/>
<rect x="437.50" y="257.37" width="3.00" height="108.92" fill="#8a4f9f" opacity="0.82"/>
<rect x="441.00" y="258.06" width="3.00" height="108.23" fill="#8a4f9f" opacity="0.82"/>
<rect x="444.50" y="258.70" width="3.00" height="107.59" fill="#8a4f9f" opacity="0.82"/>
<rect x="448.00" y="259.29" width="3.00" height="107.00" fill="#8a4f9f" opacity="0.82"/>
<rect x="451.50" y="259.83" width="3.00" height="106.46" fill="#8a4f9f" opacity="0.82"/>
<rect x="455.00" y="260.33" width="3.00" height="105.96" fill="#8a4f9f" opacity="0.82"/>
<rect x="458.50" y="260.84" width="3.00" height="105.45" fill="#8a4f9f" opacity="0.82"/>
<rect x="462.00" y="261.31" width="3.00" height="104.98" fill="#8a4f9f" opacity="0.82"/>
<rect x="465.50" y="261.77" width="3.00" height="104.52" fill="#8a4f9f" opacity="0.82"/>
<rect x="469.00" y="262.24" width="3.00" height="104.05" fill="#8a4f9f" opacity="0.82"/>
<rect x="472.50" y="262.67" width="3.00" height="103.62" fill="#8a4f9f" opacity="0.82"/>
<rect x="476.00" y="263.11" width="3.00" height="103.18" fill="#8a4f9f" opacity="0.82"/>
<rect x="479.50" y="263.49" width="3.00" height="102.80" fill="#8a4f9f" opacity="0.82"/>
<rect x="483.00" y="263.85" width="3.00" height="102.44" fill="#8a4f9f" opacity="0.82"/>
<rect x="486.50" y="264.19" width="3.00" height="102.10" fill="#8a4f9f" opacity="0.82"/>
<rect x="490.00" y="264.47" width="3.00" height="101.82" fill="#8a4f9f" opacity="0.82"/>
<rect x="493.50" y="264.73" width="3.00" height="101.56" fill="#8a4f9f" opacity="0.82"/>
<rect x="497.00" y="264.94" width="3.00" height="101.35" fill="#8a4f9f" opacity="0.82"/>
<rect x="500.50" y="265.13" width="3.00" height="101.17" fill="#8a4f9f" opacity="0.82"/>
<rect x="504.00" y="265.32" width="3.00" height="100.97" fill="#8a4f9f" opacity="0.82"/>
<rect x="507.50" y="265.50" width="3.00" height="100.79" fill="#8a4f9f" opacity="0.82"/>
<rect x="511.00" y="265.63" width="3.00" height="100.66" fill="#8a4f9f" opacity="0.82"/>
<rect x="514.50" y="265.73" width="3.00" height="100.56" fill="#8a4f9f" opacity="0.82"/>
<rect x="518.00" y="265.82" width="3.00" height="100.47" fill="#8a4f9f" opacity="0.82"/>
<rect x="521.50" y="265.91" width="3.00" height="100.39" fill="#8a4f9f" opacity="0.82"/>
<rect x="525.00" y="265.96" width="3.00" height="100.33" fill="#8a4f9f" opacity="0.82"/>
<rect x="528.50" y="266.02" width="3.00" height="100.27" fill="#8a4f9f" opacity="0.82"/>
<rect x="532.00" y="266.11" width="3.00" height="100.18" fill="#8a4f9f" opacity="0.82"/>
<rect x="535.50" y="266.23" width="3.00" height="100.06" fill="#8a4f9f" opacity="0.82"/>
<rect x="539.00" y="266.38" width="3.00" height="99.91" fill="#8a4f9f" opacity="0.82"/>
<rect x="542.50" y="266.55" width="3.00" height="99.74" fill="#8a4f9f" opacity="0.82"/>
<rect x="546.00" y="266.71" width="3.00" height="99.58" fill="#8a4f9f" opacity="0.82"/>
<rect x="549.50" y="266.87" width="3.00" height="99.42" fill="#8a4f9f" opacity="0.82"/>
<rect x="553.00" y="267.06" width="3.00" height="99.23" fill="#8a4f9f" opacity="0.82"/>
<rect x="556.50" y="267.25" width="3.00" height="99.04" fill="#8a4f9f" opacity="0.82"/>
<rect x="560.00" y="267.42" width="3.00" height="98.87" fill="#8a4f9f" opacity="0.82"/>
<rect x="563.50" y="267.57" width="3.00" height="98.72" fill="#8a4f9f" opacity="0.82"/>
<rect x="567.00" y="267.79" width="3.00" height="98.50" fill="#8a4f9f" opacity="0.82"/>
<rect x="570.50" y="267.99" width="3.00" height="98.30" fill="#8a4f9f" opacity="0.82"/>
<rect x="574.00" y="268.17" width="3.00" height="98.12" fill="#8a4f9f" opacity="0.82"/>
<rect x="577.50" y="268.34" width="3.00" height="97.95" fill="#8a4f9f" opacity="0.82"/>
<rect x="581.00" y="268.50" width="3.00" height="97.79" fill="#8a4f9f" opacity="0.82"/>
<rect x="584.50" y="268.66" width="3.00" height="97.63" fill="#8a4f9f" opacity="0.82"/>
<rect x="588.00" y="268.81" width="3.00" height="97.48" fill="#8a4f9f" opacity="0.82"/>
<rect x="591.50" y="268.98" width="3.00" height="97.31" fill="#8a4f9f" opacity="0.82"/>
<rect x="595.00" y="269.16" width="3.00" height="97.13" fill="#8a4f9f" opacity="0.82"/>
<rect x="598.50" y="269.38" width="3.00" height="96.91" fill="#8a4f9f" opacity="0.82"/>
<rect x="602.00" y="269.62" width="3.00" height="96.67" fill="#8a4f9f" opacity="0.82"/>
<rect x="605.50" y="269.91" width="3.00" height="96.38" fill="#8a4f9f" opacity="0.82"/>
<rect x="609.00" y="270.21" width="3.00" height="96.08" fill="#8a4f9f" opacity="0.82"/>
<rect x="612.50" y="270.53" width="3.00" height="95.76" fill="#8a4f9f" opacity="0.82"/>
<rect x="616.00" y="270.88" width="3.00" height="95.42" fill="#8a4f9f" opacity="0.82"/>
<rect x="619.50" y="271.24" width="3.00" height="95.05" fill="#8a4f9f" opacity="0.82"/>
<rect x="623.00" y="271.58" width="3.00" height="94.71" fill="#8a4f9f" opacity="0.82"/>
<rect x="626.50" y="271.92" width="3.00" height="94.37" fill="#8a4f9f" opacity="0.82"/>
<rect x="630.00" y="272.28" width="3.00" height="94.01" fill="#8a4f9f" opacity="0.82"/>
<rect x="633.50" y="272.66" width="3.00" height="93.64" fill="#8a4f9f" opacity="0.82"/>
<rect x="637.00" y="273.03" width="3.00" height="93.26" fill="#8a4f9f" opacity="0.82"/>
<rect x="640.50" y="273.40" width="3.00" height="92.89" fill="#8a4f9f" opacity="0.82"/>
<rect x="644.00" y="273.79" width="3.00" height="92.50" fill="#8a4f9f" opacity="0.82"/>
<rect x="647.50" y="274.19" width="3.00" height="92.10" fill="#8a4f9f" opacity="0.82"/>
<rect x="651.00" y="274.55" width="3.00" height="91.74" fill="#8a4f9f" opacity="0.82"/>
<rect x="654.50" y="274.90" width="3.00" height="91.39" fill="#8a4f9f" opacity="0.82"/>
<rect x="658.00" y="275.23" width="3.00" height="91.06" fill="#8a4f9f" opacity="0.82"/>
<rect x="661.50" y="275.55" width="3.00" height="90.74" fill="#8a4f9f" opacity="0.82"/>
<rect x="665.00" y="275.87" width="3.00" height="90.42" fill="#8a4f9f" opacity="0.82"/>
<rect x="668.50" y="276.18" width="3.00" height="90.11" fill="#8a4f9f" opacity="0.82"/>
<rect x="672.00" y="276.46" width="3.00" height="89.83" fill="#8a4f9f" opacity="0.82"/>
<rect x="675.50" y="276.68" width="3.00" height="89.61" fill="#8a4f9f" opacity="0.82"/>
<rect x="679.00" y="276.88" width="3.00" height="89.41" fill="#8a4f9f" opacity="0.82"/>
<rect x="682.50" y="277.02" width="3.00" height="89.27" fill="#8a4f9f" opacity="0.82"/>
<rect x="686.00" y="277.11" width="3.00" height="89.18" fill="#8a4f9f" opacity="0.82"/>
<rect x="689.50" y="277.18" width="3.00" height="89.11" fill="#8a4f9f" opacity="0.82"/>
<rect x="693.00" y="277.25" width="3.00" height="89.05" fill="#8a4f9f" opacity="0.82"/>
<rect x="696.50" y="277.30" width="3.00" height="88.99" fill="#8a4f9f" opacity="0.82"/>
<rect x="700.00" y="277.34" width="3.00" height="88.95" fill="#8a4f9f" opacity="0.82"/>
<rect x="703.50" y="277.33" width="3.00" height="88.96" fill="#8a4f9f" opacity="0.82"/>
<rect x="707.00" y="277.32" width="3.00" height="88.97" fill="#8a4f9f" opacity="0.82"/>
<rect x="710.50" y="277.26" width="3.00" height="89.03" fill="#8a4f9f" opacity="0.82"/>
<rect x="714.00" y="277.16" width="3.00" height="89.13" fill="#8a4f9f" opacity="0.82"/>
<rect x="717.50" y="277.05" width="3.00" height="89.24" fill="#8a4f9f" opacity="0.82"/>
<rect x="721.00" y="276.89" width="3.00" height="89.40" fill="#8a4f9f" opacity="0.82"/>
<rect x="724.50" y="276.71" width="3.00" height="89.58" fill="#8a4f9f" opacity="0.82"/>
<rect x="728.00" y="276.51" width="3.00" height="89.79" fill="#8a4f9f" opacity="0.82"/>
<rect x="731.50" y="276.24" width="3.00" height="90.05" fill="#8a4f9f" opacity="0.82"/>
<rect x="735.00" y="275.95" width="3.00" height="90.34" fill="#8a4f9f" opacity="0.82"/>
<rect x="738.50" y="275.61" width="3.00" height="90.68" fill="#8a4f9f" opacity="0.82"/>
<rect x="742.00" y="275.27" width="3.00" height="91.02" fill="#8a4f9f" opacity="0.82"/>
<rect x="745.50" y="274.93" width="3.00" height="91.36" fill="#8a4f9f" opacity="0.82"/>
<rect x="749.00" y="274.56" width="3.00" height="91.73" fill="#8a4f9f" opacity="0.82"/>
<rect x="752.50" y="274.22" width="3.00" height="92.07" fill="#8a4f9f" opacity="0.82"/>
<rect x="756.00" y="273.86" width="3.00" height="92.43" fill="#8a4f9f" opacity="0.82"/>
<rect x="759.50" y="273.50" width="3.00" height="92.79" fill="#8a4f9f" opacity="0.82"/>
<rect x="763.00" y="273.15" width="3.00" height="93.14" fill="#8a4f9f" opacity="0.82"/>
<rect x="766.50" y="272.84" width="3.00" height="93.45" fill="#8a4f9f" opacity="0.82"/>
<rect x="770.00" y="272.58" width="3.00" height="93.71" fill="#8a4f9f" opacity="0.82"/>
<rect x="773.50" y="272.35" width="3.00" height="93.94" fill="#8a4f9f" opacity="0.82"/>
<rect x="777.00" y="272.13" width="3.00" height="94.16" fill="#8a4f9f" opacity="0.82"/>
<rect x="780.50" y="271.95" width="3.00" height="94.35" fill="#8a4f9f" opacity="0.82"/>
<rect x="784.00" y="271.77" width="3.00" height="94.52" fill="#8a4f9f" opacity="0.82"/>
<rect x="787.50" y="271.60" width="3.00" height="94.69" fill="#8a4f9f" opacity="0.82"/>
<rect x="791.00" y="271.47" width="3.00" height="94.82" fill="#8a4f9f" opacity="0.82"/>
<rect x="794.50" y="271.33" width="3.00" height="94.96" fill="#8a4f9f" opacity="0.82"/>
<rect x="798.00" y="271.21" width="3.00" height="95.08" fill="#8a4f9f" opacity="0.82"/>
<rect x="801.50" y="271.09" width="3.00" height="95.21" fill="#8a4f9f" opacity="0.82"/>
<rect x="805.00" y="270.97" width="3.00" height="95.32" fill="#8a4f9f" opacity="0.82"/>
<rect x="808.50" y="270.83" width="3.00" height="95.46" fill="#8a4f9f" opacity="0.82"/>
<rect x="812.00" y="270.64" width="3.00" height="95.65" fill="#8a4f9f" opacity="0.82"/>
<rect x="815.50" y="270.40" width="3.00" height="95.89" fill="#8a4f9f" opacity="0.82"/>
<rect x="819.00" y="270.16" width="3.00" height="96.13" fill="#8a4f9f" opacity="0.82"/>
<rect x="822.50" y="269.90" width="3.00" height="96.39" fill="#8a4f9f" opacity="0.82"/>
<rect x="826.00" y="269.64" width="3.00" height="96.65" fill="#8a4f9f" opacity="0.82"/>
<rect x="829.50" y="269.37" width="3.00" height="96.92" fill="#8a4f9f" opacity="0.82"/>
<rect x="833.00" y="269.11" width="3.00" height="97.18" fill="#8a4f9f" opacity="0.82"/>
<rect x="836.50" y="268.84" width="3.00" height="97.45" fill="#8a4f9f" opacity="0.82"/>
<rect x="840.00" y="268.58" width="3.00" height="97.71" fill="#8a4f9f" opacity="0.82"/>
<rect x="843.50" y="268.33" width="3.00" height="97.96" fill="#8a4f9f" opacity="0.82"/>
<rect x="847.00" y="268.10" width="3.00" height="98.19" fill="#8a4f9f" opacity="0.82"/>
<rect x="850.50" y="267.90" width="3.00" height="98.39" fill="#8a4f9f" opacity="0.82"/>
<rect x="854.00" y="267.73" width="3.00" height="98.56" fill="#8a4f9f" opacity="0.82"/>
<rect x="857.50" y="267.58" width="3.00" height="98.71" fill="#8a4f9f" opacity="0.82"/>
<rect x="861.00" y="267.44" width="3.00" height="98.85" fill="#8a4f9f" opacity="0.82"/>
<rect x="864.50" y="267.36" width="3.00" height="98.94" fill="#8a4f9f" opacity="0.82"/>
<rect x="868.00" y="267.30" width="3.00" height="98.99" fill="#8a4f9f" opacity="0.82"/>
<rect x="871.50" y="267.26" width="3.00" height="99.03" fill="#8a4f9f" opacity="0.82"/>
<rect x="875.00" y="267.24" width="3.00" height="99.05" fill="#8a4f9f" opacity="0.82"/>
<rect x="878.50" y="267.23" width="3.00" height="99.06" fill="#8a4f9f" opacity="0.82"/>
<rect x="882.00" y="267.22" width="3.00" height="99.07" fill="#8a4f9f" opacity="0.82"/>
<rect x="885.50" y="267.22" width="3.00" height="99.07" fill="#8a4f9f" opacity="0.82"/>
<rect x="889.00" y="267.18" width="3.00" height="99.11" fill="#8a4f9f" opacity="0.82"/>
<rect x="892.50" y="267.15" width="3.00" height="99.14" fill="#8a4f9f" opacity="0.82"/>
<rect x="896.00" y="267.14" width="3.00" height="99.15" fill="#8a4f9f" opacity="0.82"/>
<rect x="899.50" y="267.14" width="3.00" height="99.15" fill="#8a4f9f" opacity="0.82"/>
<rect x="903.00" y="267.09" width="3.00" height="99.20" fill="#8a4f9f" opacity="0.82"/>
<rect x="906.50" y="267.00" width="3.00" height="99.29" fill="#8a4f9f" opacity="0.82"/>
<rect x="910.00" y="266.88" width="3.00" height="99.41" fill="#8a4f9f" opacity="0.82"/>
<rect x="913.50" y="266.76" width="3.00" height="99.53" fill="#8a4f9f" opacity="0.82"/>
<rect x="917.00" y="266.60" width="3.00" height="99.69" fill="#8a4f9f" opacity="0.82"/>
<rect x="920.50" y="266.42" width="3.00" height="99.87" fill="#8a4f9f" opacity="0.82"/>
<rect x="924.00" y="266.25" width="3.00" height="100.04" fill="#8a4f9f" opacity="0.82"/>
<rect x="927.50" y="266.09" width="3.00" height="100.20" fill="#8a4f9f" opacity="0.82"/>
<rect x="931.00" y="265.91" width="3.00" height="100.38" fill="#8a4f9f" opacity="0.82"/>
<rect x="934.50" y="265.68" width="3.00" height="100.61" fill="#8a4f9f" opacity="0.82"/>
<rect x="938.00" y="265.45" width="3.00" height="100.84" fill="#8a4f9f" opacity="0.82"/>
<rect x="941.50" y="265.21" width="3.00" height="101.08" fill="#8a4f9f" opacity="0.82"/>
<rect x="945.00" y="265.00" width="3.00" height="101.29" fill="#8a4f9f" opacity="0.82"/>
<rect x="948.50" y="264.76" width="3.00" height="101.53" fill="#8a4f9f" opacity="0.82"/>
<rect x="952.00" y="264.49" width="3.00" height="101.81" fill="#8a4f9f" opacity="0.82"/>
<rect x="955.50" y="264.16" width="3.00" height="102.13" fill="#8a4f9f" opacity="0.82"/>
<rect x="959.00" y="263.80" width="3.00" height="102.49" fill="#8a4f9f" opacity="0.82"/>
<rect x="962.50" y="263.43" width="3.00" height="102.86" fill="#8a4f9f" opacity="0.82"/>
<rect x="966.00" y="263.02" width="3.00" height="103.27" fill="#8a4f9f" opacity="0.82"/>
<rect x="969.50" y="262.57" width="3.00" height="103.72" fill="#8a4f9f" opacity="0.82"/>
<rect x="973.00" y="262.12" width="3.00" height="104.17" fill="#8a4f9f" opacity="0.82"/>
<rect x="976.50" y="261.68" width="3.00" height="104.61" fill="#8a4f9f" opacity="0.82"/>
<rect x="980.00" y="261.19" width="3.00" height="105.10" fill="#8a4f9f" opacity="0.82"/>
<rect x="983.50" y="260.66" width="3.00" height="105.63" fill="#8a4f9f" opacity="0.82"/>
<rect x="987.00" y="260.09" width="3.00" height="106.21" fill="#8a4f9f" opacity="0.82"/>
<rect x="990.50" y="259.51" width="3.00" height="106.78" fill="#8a4f9f" opacity="0.82"/>
<rect x="994.00" y="258.93" width="3.00" height="107.36" fill="#8a4f9f" opacity="0.82"/>
<rect x="997.50" y="258.37" width="3.00" height="107.92" fill="#8a4f9f" opacity="0.82"/>
<rect x="1001.00" y="257.79" width="3.00" height="108.50" fill="#8a4f9f" opacity="0.82"/>
<rect x="1004.50" y="257.21" width="3.00" height="109.08" fill="#8a4f9f" opacity="0.82"/>
<rect x="1008.00" y="256.58" width="3.00" height="109.72" fill="#8a4f9f" opacity="0.82"/>
<rect x="1011.50" y="255.91" width="3.00" height="110.38" fill="#8a4f9f" opacity="0.82"/>
<rect x="1015.00" y="255.24" width="3.00" height="111.05" fill="#8a4f9f" opacity="0.82"/>
<rect x="1018.50" y="254.54" width="3.00" height="111.75" fill="#8a4f9f" opacity="0.82"/>
<rect x="1022.00" y="253.85" width="3.00" height="112.44" fill="#8a4f9f" opacity="0.82"/>
<rect x="1025.50" y="253.18" width="3.00" height="113.11" fill="#8a4f9f" opacity="0.82"/>
<rect x="1029.00" y="252.55" width="3.00" height="113.74" fill="#8a4f9f" opacity="0.82"/>
<rect x="1032.50" y="251.91" width="3.00" height="114.38" fill="#8a4f9f" opacity="0.82"/>
<rect x="1036.00" y="251.29" width="3.00" height="115.00" fill="#8a4f9f" opacity="0.82"/>
<rect x="1039.50" y="250.67" width="3.00" height="115.63" fill="#8a4f9f" opacity="0.82"/>
<rect x="1043.00" y="250.09" width="3.00" height="116.20" fill="#8a4f9f" opacity="0.82"/>
<rect x="1046.50" y="249.51" width="3.00" height="116.78" fill="#8a4f9f" opacity="0.82"/>
<rect x="1050.00" y="248.96" width="3.00" height="117.34" fill="#8a4f9f" opacity="0.82"/>
<rect x="1053.50" y="248.46" width="3.00" height="117.83" fill="#8a4f9f" opacity="0.82"/>
<rect x="1057.00" y="248.02" width="3.00" height="118.28" fill="#8a4f9f" opacity="0.82"/>
<rect x="1060.50" y="247.60" width="3.00" height="118.69" fill="#8a4f9f" opacity="0.82"/>
<rect x="1064.00" y="247.23" width="3.00" height="119.06" fill="#8a4f9f" opacity="0.82"/>
<rect x="1067.50" y="246.93" width="3.00" height="119.36" fill="#8a4f9f" opacity="0.82"/>
<rect x="1071.00" y="246.68" width="3.00" height="119.61" fill="#8a4f9f" opacity="0.82"/>
<rect x="1074.50" y="246.50" width="3.00" height="119.79" fill="#8a4f9f" opacity="0.82"/>
<rect x="1078.00" y="246.38" width="3.00" height="119.91" fill="#8a4f9f" opacity="0.82"/>
<rect x="1081.50" y="246.36" width="3.00" height="119.94" fill="#8a4f9f" opacity="0.82"/>
<rect x="1085.00" y="246.40" width="3.00" height="119.89" fill="#8a4f9f" opacity="0.82"/>
<rect x="1088.50" y="246.59" width="3.00" height="119.70" fill="#8a4f9f" opacity="0.82"/>
<text x="82.00" y="402" text-anchor="middle" font-family="Arial, sans-serif" font-size="11">0</text>
<text x="124.00" y="402" text-anchor="middle" font-family="Arial, sans-serif" font-size="11">12</text>
<text x="250.00" y="402" text-anchor="middle" font-family="Arial, sans-serif" font-size="11">48</text>
<text x="418.00" y="402" text-anchor="middle" font-family="Arial, sans-serif" font-size="11">96</text>
<text x="586.00" y="402" text-anchor="middle" font-family="Arial, sans-serif" font-size="11">144</text>
<text x="838.00" y="402" text-anchor="middle" font-family="Arial, sans-serif" font-size="11">216</text>
<text x="1090.00" y="402" text-anchor="middle" font-family="Arial, sans-serif" font-size="11">288</text>
<text x="586.00" y="422" text-anchor="middle" font-family="Arial, sans-serif" font-size="13">Retardo</text>
<text transform="translate(18,215.0) rotate(-90)" text-anchor="middle" font-family="Arial, sans-serif" font-size="13">ACF</text>
<text x="90" y="418" font-family="Arial, sans-serif" font-size="11" fill="#8a2222">Bandas orientativas ±0.003962</text>
</svg>